<?xml version="1.0" standalone="no"?>
<!DOCTYPE svg PUBLIC "-//W3C//DTD SVG 20010904//EN"
 "http://www.w3.org/TR/2001/REC-SVG-20010904/DTD/svg10.dtd">
<svg version="1.0" xmlns="http://www.w3.org/2000/svg"
 width="150.000000pt" height="150.000000pt" viewBox="0 0 150.000000 150.000000"
 preserveAspectRatio="xMidYMid meet">

<g transform="translate(0.000000,150.000000) scale(0.100000,-0.100000)"
fill="#000000" stroke="none">
<path d="M614 1252 c-5 -23 -10 -28 -28 -25 -27 5 -86 -40 -86 -65 1 -10 9
-35 20 -57 10 -22 16 -43 13 -48 -3 -5 9 -1 26 7 24 13 31 23 31 46 0 17 5 30
10 30 6 0 10 -20 10 -44 0 -47 11 -62 37 -52 14 6 13 9 -6 27 -15 15 -21 28
-17 43 3 11 6 26 6 33 0 6 10 15 23 19 21 6 37 21 37 35 0 4 -16 10 -35 13
-19 4 -35 13 -35 19 0 34 22 37 288 37 l264 0 -6 -27 c-3 -16 -13 -75 -21
-133 -9 -58 -20 -109 -25 -114 -6 -6 -104 -12 -219 -14 -201 -4 -209 -4 -220
16 -12 22 -53 32 -136 33 -49 1 -61 -3 -87 -27 -34 -33 -88 -133 -88 -163 0
-19 -8 -21 -107 -24 -72 -2 -100 -6 -86 -11 l23 -8 0 -249 c0 -159 4 -249 10
-249 6 0 10 90 10 250 l0 250 86 0 85 0 -4 -257 c-3 -142 -8 -274 -12 -293
-16 -73 9 -16 59 137 52 156 63 175 95 154 13 -9 3 -87 -34 -259 -10 -44 13
-21 24 26 11 45 13 47 48 47 32 0 37 4 48 35 14 40 12 46 43 -89 9 -41 22 -76
28 -78 7 -2 3 40 -13 118 -23 115 -25 189 -3 189 4 0 15 -19 23 -43 8 -23 29
-80 46 -127 42 -113 68 -137 36 -32 -6 18 -3 22 12 22 17 0 27 21 62 122 23
68 41 137 41 155 0 27 -6 34 -42 52 -24 11 -74 25 -111 32 -38 6 -70 16 -72
23 -2 6 -6 23 -9 39 l-6 27 225 0 225 0 0 -250 c0 -160 4 -250 10 -250 6 0 10
90 10 250 l0 250 85 0 85 0 3 -252 2 -253 3 251 c2 251 2 252 25 260 13 4 -54
10 -168 14 -104 4 -193 8 -197 9 -4 0 -2 12 4 26 9 19 8 33 -5 65 l-15 40 94
0 c67 0 96 4 99 13 5 12 45 280 45 298 0 5 -111 9 -280 9 l-280 0 -6 -28z
m-82 -265 c-12 -13 -29 -47 -37 -75 -13 -44 -36 -72 -60 -72 -7 0 0 68 11 95
11 28 28 43 66 60 44 19 45 19 20 -8z m318 -57 c7 -17 11 -32 9 -34 -2 -2 -23
-6 -46 -9 -40 -5 -45 -3 -74 34 l-31 39 65 0 c62 0 65 -1 77 -30z m78 -42 c17
-17 15 -23 -11 -24 -13 -1 -29 7 -35 17 -11 17 -9 19 11 19 13 0 28 -5 35 -12z
m-240 -38 l23 -30 -31 0 c-25 0 -30 4 -30 23 0 19 7 37 15 37 1 0 11 -13 23
-30z m-247 -255 c18 -20 18 -23 -6 -110 -14 -50 -27 -94 -29 -100 -3 -5 -5 53
-5 130 0 107 2 135 11 120 6 -11 19 -29 29 -40z m339 -35 c0 -22 -18 -117 -27
-140 -3 -9 -15 14 -29 55 l-22 70 21 17 c30 24 57 23 57 -2z"/>
<path d="M284 1085 c-7 -19 -14 -45 -14 -57 -1 -21 -2 -21 -18 7 l-17 30 -3
-47 c-3 -45 19 -118 35 -118 4 0 8 26 8 58 0 71 13 134 26 127 5 -4 9 3 9 14
0 31 -9 26 -26 -14z"/>
<path d="M302 1020 c0 -19 2 -27 5 -17 2 9 2 25 0 35 -3 9 -5 1 -5 -18z"/>
<path d="M330 1015 c-11 -13 -10 -14 4 -9 9 3 16 10 16 15 0 13 -6 11 -20 -6z"/>
</g>
</svg>
